<svg width="15" height="14" viewBox="0 0 15 14" fill="none" xmlns="http://www.w3.org/2000/svg">
<g clip-path="url(#clip0_18_499)">
<path d="M7.5 0C3.63359 0 0.5 3.13359 0.5 7C0.5 10.8664 3.63359 14 7.5 14C11.3664 14 14.5 10.8664 14.5 7C14.5 3.13359 11.3664 0 7.5 0ZM11.5824 9.33242C11.5824 9.65508 11.3227 9.91484 11 9.91484H4C3.67734 9.91484 3.41758 9.65234 3.41758 9.33242V8.16484C3.41758 7.84219 3.67734 7.58242 4 7.58242H11C11.3227 7.58242 11.5824 7.84492 11.5824 8.16484V9.33242ZM11.5824 5.83242C11.5824 6.15508 11.3227 6.41484 11 6.41484H4C3.67734 6.41484 3.41758 6.15234 3.41758 5.83242V4.66484C3.41758 4.34219 3.67734 4.08242 4 4.08242H11C11.3227 4.08242 11.5824 4.34492 11.5824 4.66484V5.83242Z" fill="#FEDC00"/>
</g>
<defs>
<clipPath id="clip0_18_499">
<rect width="14" height="14" fill="white" transform="translate(0.5)"/>
</clipPath>
</defs>
</svg>
