<svg width="26" height="27" viewBox="0 0 26 27" fill="none" xmlns="http://www.w3.org/2000/svg">
<path d="M8.66667 19.8582H10.2917V17.6915H12.4583V16.0665H10.2917V13.8998H8.66667V16.0665H6.5V17.6915H8.66667V19.8582ZM14.0833 19.0457H19.5V17.4207H14.0833V19.0457ZM14.0833 16.3373H19.5V14.7123H14.0833V16.3373ZM15.275 12.2207L16.7917 10.704L18.3083 12.2207L19.4458 11.0832L17.9292 9.51232L19.4458 7.99566L18.3083 6.85816L16.7917 8.37482L15.275 6.85816L14.1375 7.99566L15.6542 9.51232L14.1375 11.0832L15.275 12.2207ZM6.77084 10.3248H12.1875V8.69982H6.77084V10.3248ZM5.41667 23.1082C4.82084 23.1082 4.31059 22.8958 3.88592 22.4712C3.46125 22.0465 3.24928 21.5366 3.25 20.9415V5.77482C3.25 5.17899 3.46234 4.66874 3.887 4.24407C4.31167 3.81941 4.82156 3.60743 5.41667 3.60816H20.5833C21.1792 3.60816 21.6894 3.82049 22.1141 4.24516C22.5388 4.66982 22.7507 5.17971 22.75 5.77482V20.9415C22.75 21.5373 22.5377 22.0476 22.113 22.4722C21.6883 22.8969 21.1784 23.1089 20.5833 23.1082H5.41667Z" fill="#3862E0"/>
</svg>
