<svg width="15" height="20" viewBox="0 0 15 20" fill="none" xmlns="http://www.w3.org/2000/svg">
<g id="Profile">
<path id="Stroke 1" fill-rule="evenodd" clip-rule="evenodd" d="M7.85748 18.8568C4.47331 18.8568 1.58331 18.3301 1.58331 16.2211C1.58331 14.112 4.45498 12.1651 7.85748 12.1651C11.2416 12.1651 14.1316 14.0932 14.1316 16.2022C14.1316 18.3104 11.26 18.8568 7.85748 18.8568Z" stroke="white" stroke-opacity="0.7" stroke-width="1.5" stroke-linecap="round" stroke-linejoin="round"/>
<path id="Stroke 3" fill-rule="evenodd" clip-rule="evenodd" d="M7.85085 9.24251C10.0717 9.24251 11.8717 7.44251 11.8717 5.22168C11.8717 3.00085 10.0717 1.20001 7.85085 1.20001C5.63002 1.20001 3.82919 3.00085 3.82919 5.22168C3.82169 7.43501 5.60919 9.23501 7.82252 9.24251C7.83252 9.24251 7.84169 9.24251 7.85085 9.24251Z" stroke="white" stroke-opacity="0.7" stroke-width="1.5" stroke-linecap="round" stroke-linejoin="round"/>
</g>
</svg>
