<svg width="16" height="17" viewBox="0 0 16 17" fill="none" xmlns="http://www.w3.org/2000/svg">
<path fill-rule="evenodd" clip-rule="evenodd" d="M9.42633 4.36537C9.42638 3.8735 9.59865 3.39717 9.91324 3.01905C10.2278 2.64094 10.6649 2.38491 11.1486 2.29541C11.6322 2.2059 12.1319 2.28857 12.561 2.52907C12.9901 2.76957 13.3214 3.15271 13.4975 3.61199C13.6735 4.07127 13.6832 4.57771 13.5249 5.04339C13.3665 5.50907 13.0501 5.90461 12.6305 6.16135C12.211 6.41808 11.7148 6.51981 11.228 6.44887C10.7413 6.37794 10.2948 6.13882 9.96594 5.77302L8.2059 6.73304L6.23662 7.85825C6.51194 8.34283 6.58414 8.91672 6.43744 9.4544L9.96594 11.379C10.3112 10.9954 10.7852 10.752 11.2981 10.695C11.8109 10.638 12.3269 10.7713 12.7479 11.0696C13.169 11.3679 13.4658 11.8105 13.582 12.3133C13.6982 12.816 13.6257 13.344 13.3783 13.7968C13.1309 14.2497 12.7258 14.5959 12.2399 14.7697C11.7541 14.9435 11.2213 14.9328 10.7428 14.7397C10.2642 14.5465 9.87333 14.1844 9.64426 13.722C9.41519 13.2596 9.36392 12.7292 9.50018 12.2315L5.97168 10.3075C5.70276 10.6066 5.3538 10.8224 4.96608 10.9294C4.57835 11.0364 4.1681 11.0301 3.78386 10.9112C3.39961 10.7923 3.05746 10.5659 2.79789 10.2586C2.53832 9.9514 2.37219 9.57623 2.31916 9.17753C2.26613 8.77883 2.32842 8.37328 2.49866 8.00887C2.6689 7.64446 2.93996 7.33645 3.27977 7.12127C3.61958 6.90609 4.01392 6.79275 4.41613 6.79466C4.81833 6.79658 5.21157 6.91367 5.54932 7.13208L7.73237 5.88444L9.50018 4.91988C9.45104 4.73915 9.4262 4.55267 9.42633 4.36537ZM11.5316 3.23174C11.3828 3.23174 11.2354 3.26107 11.0978 3.31804C10.9603 3.37501 10.8353 3.45851 10.73 3.56378C10.6248 3.66904 10.5413 3.79401 10.4843 3.93155C10.4273 4.06909 10.398 4.2165 10.398 4.36537C10.398 4.51424 10.4273 4.66166 10.4843 4.7992C10.5413 4.93673 10.6248 5.0617 10.73 5.16697C10.8353 5.27224 10.9603 5.35574 11.0978 5.41271C11.2354 5.46968 11.3828 5.499 11.5316 5.499C11.8323 5.499 12.1206 5.37957 12.3332 5.16697C12.5458 4.95437 12.6653 4.66603 12.6653 4.36537C12.6653 4.06472 12.5458 3.77637 12.3332 3.56378C12.1206 3.35118 11.8323 3.23174 11.5316 3.23174ZM4.40597 7.76626C4.10532 7.76626 3.81697 7.8857 3.60438 8.0983C3.39178 8.31089 3.27234 8.59924 3.27234 8.89989C3.27234 9.20055 3.39178 9.48889 3.60438 9.70149C3.81697 9.91409 4.10532 10.0335 4.40597 10.0335C4.70663 10.0335 4.99497 9.91409 5.20757 9.70149C5.42017 9.48889 5.5396 9.20055 5.5396 8.89989C5.5396 8.59924 5.42017 8.31089 5.20757 8.0983C4.99497 7.8857 4.70663 7.76626 4.40597 7.76626ZM10.398 12.7866C10.398 12.486 10.5175 12.1976 10.73 11.985C10.9426 11.7724 11.231 11.653 11.5316 11.653C11.8323 11.653 12.1206 11.7724 12.3332 11.985C12.5458 12.1976 12.6653 12.486 12.6653 12.7866C12.6653 13.0873 12.5458 13.3756 12.3332 13.5882C12.1206 13.8008 11.8323 13.9203 11.5316 13.9203C11.231 13.9203 10.9426 13.8008 10.73 13.5882C10.5175 13.3756 10.398 13.0873 10.398 12.7866Z" fill="#F1F0FA"/>
</svg>
