<svg width="23" height="22" viewBox="0 0 23 22" fill="none" xmlns="http://www.w3.org/2000/svg">
<g id="vuesax/linear/wallet">
<g id="wallet">
<path id="Vector" d="M12.105 2.30845L12.0775 2.37262L9.41913 8.54179H6.80663C6.1833 8.54179 5.58746 8.67012 5.04663 8.89929L6.6508 5.06762L6.68746 4.97595L6.75163 4.82929C6.76996 4.77429 6.7883 4.71929 6.8158 4.67345C8.01663 1.89595 9.3733 1.26345 12.105 2.30845Z" stroke="#FAFAFA" stroke-width="1.5" stroke-linecap="round" stroke-linejoin="round"/>
<path id="Vector_2" d="M17.0459 8.72477C16.6334 8.59644 16.1934 8.54144 15.7534 8.54144H9.41919L12.0775 2.37227L12.105 2.30811C12.2425 2.35394 12.3709 2.41811 12.5084 2.47311L14.5342 3.32561C15.6617 3.79311 16.45 4.27894 16.9267 4.86561C17.0184 4.97561 17.0917 5.07644 17.1559 5.19561C17.2384 5.32394 17.3025 5.45227 17.3392 5.58977C17.3759 5.67227 17.4034 5.75477 17.4217 5.82811C17.6692 6.59811 17.5225 7.54227 17.0459 8.72477Z" stroke="#FAFAFA" stroke-width="1.5" stroke-linecap="round" stroke-linejoin="round"/>
<path id="Vector_3" d="M20.2283 13.0153V14.8028C20.2283 14.9862 20.2191 15.1695 20.2099 15.3528C20.0358 18.552 18.2483 20.1653 14.8566 20.1653H7.70662C7.48662 20.1653 7.26662 20.147 7.05578 20.1195C4.14078 19.927 2.58245 18.3687 2.38995 15.4537C2.36245 15.2428 2.34412 15.0228 2.34412 14.8028V13.0153C2.34412 11.1728 3.46245 9.58699 5.05745 8.89949C5.60745 8.67033 6.19412 8.54199 6.81745 8.54199H15.7641C16.2133 8.54199 16.6533 8.60616 17.0566 8.72533C18.8808 9.28449 20.2283 10.9895 20.2283 13.0153Z" stroke="#FAFAFA" stroke-width="1.5" stroke-linecap="round" stroke-linejoin="round"/>
<path id="Vector_4" d="M6.65087 5.06738L5.04671 8.89905C3.45171 9.58655 2.33337 11.1724 2.33337 13.0149V10.329C2.33337 7.72572 4.18504 5.55322 6.65087 5.06738Z" stroke="#FAFAFA" stroke-width="1.5" stroke-linecap="round" stroke-linejoin="round"/>
<path id="Vector_5" d="M20.2254 10.3285V13.0144C20.2254 10.9977 18.887 9.28352 17.0537 8.73352C17.5304 7.54186 17.6679 6.60686 17.4387 5.82769C17.4204 5.74519 17.3929 5.66269 17.3562 5.58936C19.0612 6.46936 20.2254 8.27519 20.2254 10.3285Z" stroke="#FAFAFA" stroke-width="1.5" stroke-linecap="round" stroke-linejoin="round"/>
</g>
</g>
</svg>
